<svg width="332" height="328" viewBox="0 0 332 328" fill="none" xmlns="http://www.w3.org/2000/svg">
<g clip-path="url(#clip0_2571_19903)">
<path d="M211.755 80.1465H194.09V221.666C194.09 223.886 193.625 226.085 192.72 228.136C191.816 230.188 190.491 232.052 188.82 233.622C187.149 235.192 185.166 236.437 182.982 237.287C180.799 238.136 178.46 238.574 176.097 238.574H41.041V238.736C41.041 240.956 41.5064 243.155 42.4107 245.206C43.3149 247.257 44.6403 249.121 46.3111 250.691C47.982 252.261 49.9656 253.507 52.1486 254.357C54.3317 255.206 56.6715 255.644 59.0344 255.644H211.755C214.118 255.644 216.458 255.206 218.641 254.357C220.824 253.507 222.807 252.261 224.478 250.691C226.149 249.121 227.475 247.257 228.379 245.206C229.283 243.155 229.748 240.956 229.748 238.736V97.0545C229.748 92.5702 227.853 88.2696 224.478 85.0987C221.104 81.9279 216.527 80.1465 211.755 80.1465Z" fill="#F2F2F2"/>
<path d="M295.495 305.043C295.808 305.056 296.118 304.979 296.382 304.822C296.647 304.664 296.853 304.434 296.974 304.163C297.095 303.892 297.124 303.592 297.057 303.304C296.991 303.017 296.832 302.756 296.602 302.556L296.497 302.165C296.511 302.134 296.525 302.103 296.539 302.071C296.854 301.372 297.382 300.776 298.056 300.358C298.731 299.94 299.522 299.718 300.33 299.721C301.138 299.724 301.927 299.951 302.598 300.374C303.269 300.797 303.793 301.396 304.102 302.098C305.339 304.897 306.914 307.702 307.302 310.662C307.473 311.97 307.4 313.297 307.089 314.582C309.994 308.626 311.503 302.154 311.513 295.602C311.513 293.958 311.416 292.315 311.221 290.682C311.061 289.342 310.838 288.012 310.552 286.692C308.995 279.528 305.652 272.814 300.797 267.1C298.447 265.895 296.546 264.043 295.352 261.792C294.919 260.983 294.613 260.119 294.443 259.227C294.708 259.26 295.443 255.466 295.243 255.234C295.612 254.707 296.273 254.445 296.677 253.931C298.683 251.375 301.448 251.821 302.891 255.295C305.974 256.757 306.004 259.182 304.112 261.514C302.909 262.998 302.743 265.005 301.687 266.594C301.796 266.724 301.909 266.851 302.018 266.982C304.004 269.381 305.734 271.958 307.185 274.675C306.832 271.631 307.254 268.552 308.414 265.691C309.59 263.025 311.795 260.78 313.736 258.475C314.25 257.855 314.947 257.393 315.74 257.146C316.533 256.899 317.386 256.879 318.191 257.088C318.997 257.296 319.718 257.725 320.265 258.318C320.811 258.912 321.158 259.645 321.261 260.424C321.265 260.458 321.269 260.492 321.273 260.526C320.984 260.679 320.702 260.841 320.426 261.013C320.079 261.23 319.81 261.542 319.654 261.905C319.499 262.269 319.464 262.669 319.554 263.052C319.645 263.434 319.856 263.783 320.16 264.051C320.465 264.319 320.848 264.494 321.261 264.554L321.303 264.56C321.2 265.537 321.019 266.505 320.76 267.455C323.25 276.506 317.873 279.802 310.196 279.951C310.026 280.032 309.861 280.114 309.692 280.191C311.15 284.074 312.064 288.117 312.412 292.221C312.609 294.642 312.597 297.074 312.377 299.494L312.39 299.408C312.947 296.718 314.474 294.29 316.714 292.536C320.041 289.967 324.742 289.021 328.332 286.957C328.714 286.727 329.157 286.604 329.611 286.603C330.064 286.602 330.508 286.722 330.891 286.951C331.274 287.179 331.579 287.506 331.77 287.892C331.962 288.278 332.032 288.707 331.973 289.13L331.958 289.22C331.423 289.425 330.902 289.661 330.398 289.926C330.11 290.079 329.827 290.241 329.551 290.413C329.204 290.631 328.935 290.942 328.78 291.306C328.624 291.67 328.59 292.069 328.68 292.452C328.77 292.835 328.981 293.183 329.286 293.451C329.59 293.719 329.974 293.895 330.386 293.955L330.429 293.961C330.459 293.965 330.485 293.969 330.515 293.973C329.601 296.024 328.318 297.913 326.722 299.555C325.165 307.456 318.476 308.205 311.321 305.905H311.317C310.532 309.11 309.395 312.23 307.923 315.215H295.799C295.756 315.088 295.717 314.957 295.677 314.831C296.8 314.897 297.926 314.834 299.032 314.643C298.133 313.606 297.233 312.561 296.334 311.523C296.314 311.504 296.295 311.484 296.277 311.462C295.821 310.931 295.36 310.405 294.904 309.874L294.904 309.873C294.879 308.246 295.079 306.622 295.495 305.043Z" fill="#F2F2F2"/>
<path d="M161.958 60.8951C162.401 61.5253 162.984 62.0576 163.667 62.4552C164.35 62.8529 165.117 63.1063 165.915 63.1981C166.712 63.2898 167.522 63.2176 168.287 62.9866C169.052 62.7555 169.754 62.371 170.345 61.8598L195.552 72.5459L200.411 66.7212L170.375 54.2347C169.385 53.3634 168.089 52.8636 166.733 52.8299C165.378 52.7963 164.056 53.2312 163.018 54.0522C161.981 54.8731 161.3 56.0232 161.105 57.2844C160.909 58.5456 161.213 59.8303 161.958 60.8951Z" fill="#FFCC99"/>
<path d="M270.135 67.5591L272.635 80.8713C272.752 81.4923 272.729 82.1294 272.568 82.7417C272.407 83.3539 272.112 83.9278 271.701 84.4265C271.29 84.9251 270.773 85.3376 270.182 85.6373C269.592 85.937 268.941 86.1173 268.272 86.1668L225.792 89.3058L175.859 68.3064L181.823 57.668L225.17 70.5665L270.135 67.5591Z" fill="#49A760"/>
<path d="M170.714 58.0176H17.9934C8.05591 58.0176 0 65.5876 0 74.9256V216.607C0 225.945 8.05591 233.515 17.9934 233.515H170.714C180.652 233.515 188.707 225.945 188.707 216.607V74.9256C188.707 65.5876 180.652 58.0176 170.714 58.0176Z" fill="#F2F2F2"/>
<path d="M17.9942 61.4961C16.1172 61.4961 14.2586 61.8435 12.5245 62.5184C10.7904 63.1934 9.21473 64.1827 7.8875 65.4299C6.56027 66.6771 5.50744 68.1577 4.78915 69.7872C4.07086 71.4167 3.70117 73.1632 3.70117 74.927V216.608C3.70117 220.17 5.20704 223.586 7.8875 226.105C10.568 228.624 14.2035 230.039 17.9942 230.039H115.464C124.597 230.039 133.64 228.349 142.077 225.065C150.515 221.781 158.181 216.967 164.639 210.899C171.096 204.831 176.219 197.627 179.714 189.698C183.209 181.77 185.008 173.272 185.008 164.69V74.927C185.008 73.1632 184.638 71.4167 183.92 69.7872C183.201 68.1577 182.149 66.6771 180.821 65.4299C179.494 64.1827 177.918 63.1934 176.184 62.5184C174.45 61.8435 172.592 61.4961 170.715 61.4961H17.9942Z" fill="white"/>
<path d="M137.046 104.494H51.327C50.5405 104.494 49.7861 104.2 49.23 103.678C48.6738 103.155 48.3613 102.446 48.3613 101.707C48.3613 100.968 48.6738 100.259 49.23 99.7362C49.7861 99.2136 50.5405 98.9199 51.327 98.9199H137.046C137.832 98.9199 138.587 99.2136 139.143 99.7362C139.699 100.259 140.012 100.968 140.012 101.707C140.012 102.446 139.699 103.155 139.143 103.678C138.587 104.2 137.832 104.494 137.046 104.494Z" fill="#F2F2F2"/>
<path d="M137.046 163.922H51.327C50.5405 163.922 49.7861 163.628 49.23 163.105C48.6738 162.583 48.3613 161.874 48.3613 161.135C48.3613 160.396 48.6738 159.687 49.23 159.164C49.7861 158.641 50.5405 158.348 51.327 158.348H137.046C137.832 158.348 138.587 158.641 139.143 159.164C139.699 159.687 140.012 160.396 140.012 161.135C140.012 161.874 139.699 162.583 139.143 163.105C138.587 163.628 137.832 163.922 137.046 163.922Z" fill="#F2F2F2"/>
<path d="M171.855 134.226H16.5184C15.7319 134.226 14.9775 133.933 14.4214 133.41C13.8652 132.887 13.5527 132.179 13.5527 131.439C13.5527 130.7 13.8652 129.991 14.4214 129.469C14.9775 128.946 15.7319 128.652 16.5184 128.652H171.855C172.641 128.652 173.395 128.946 173.952 129.469C174.508 129.991 174.82 130.7 174.82 131.439C174.82 132.179 174.508 132.887 173.952 133.41C173.395 133.933 172.641 134.226 171.855 134.226Z" fill="#F2F2F2"/>
<path d="M264.767 126.234L249.293 157.213L308.82 151.547L296.394 121.809L264.767 126.234Z" fill="#FFCC99"/>
<path d="M278.607 304.287L272.963 304.242L270.465 283.309L278.794 283.375L278.607 304.287Z" fill="#FFCC99"/>
<path d="M260.527 312.72C260.522 313.349 260.783 313.954 261.252 314.402C261.721 314.851 262.36 315.106 263.029 315.112L274.251 315.2L276.215 311.458L276.936 315.219L281.171 315.255L280.101 301.842L278.628 301.749L272.62 301.36L270.681 301.238L270.647 305.033L261.633 310.779C261.295 310.994 261.018 311.283 260.826 311.621C260.633 311.96 260.531 312.337 260.527 312.72Z" fill="#2F2E41"/>
<path d="M216.147 304.31L210.766 302.709L214.923 282.01L222.865 284.372L216.147 304.31Z" fill="#FFCC99"/>
<path d="M196.23 307.381C196.029 307.98 196.089 308.63 196.397 309.188C196.705 309.747 197.236 310.167 197.874 310.358L208.572 313.54L211.62 310.506L211.134 314.3L215.17 315.503L218.342 302.386L216.963 301.892L211.341 299.861L209.526 299.209L208.307 302.827L197.894 305.83C197.504 305.943 197.149 306.143 196.859 306.413C196.569 306.683 196.354 307.015 196.23 307.381Z" fill="#2F2E41"/>
<path d="M306.108 142.834L251.984 152.153C251.984 152.153 243.302 158.255 245.625 160.441C247.947 162.626 248.307 162.288 246.781 163.721C245.256 165.155 241.957 167.072 241.924 168.326C241.892 169.581 217.671 225.848 217.671 225.848C217.671 225.848 220.362 224.583 218.344 226.48C216.325 228.377 216.325 229.944 216.325 229.944L206.906 289.702L222.203 290.548L237.182 236.068L270.593 185.172C270.593 185.172 273.908 230.558 274.047 233.577C274.186 236.595 276.205 232.802 274.186 236.595C272.168 240.389 270.822 237.86 272.168 240.389C273.513 242.918 267.32 294.402 267.32 294.402H281.283L311.229 187.689C311.229 187.689 321.884 157.181 306.108 142.834Z" fill="#2F2E41"/>
<path d="M290.164 57.4782L268.483 55.3613L262.866 62.2141L256.323 65.4891C253.553 66.8751 251.268 68.9812 249.739 71.5557C248.21 74.1301 247.502 77.064 247.701 80.0063L255.348 121.808C255.348 121.808 248.889 135.476 253.33 138.878C257.771 142.28 249.896 150.705 259.385 146.464C268.874 142.224 309.845 147.096 309.845 147.096L301.098 123.704L307.632 100.719L308.351 81.4453C308.486 77.8438 307.348 74.3017 305.116 71.3711C302.885 68.4405 299.684 66.2861 296.013 65.2436L295.099 64.9842L290.164 57.4782Z" fill="#49A760"/>
<path d="M320.013 41.859C320.155 47.6014 317.871 53.1618 314.591 58.0456C313.616 55.1945 311.863 52.5996 310.036 50.1259C310.957 55.4771 309.976 60.9645 307.243 65.7389C307.147 65.8036 307.047 65.8637 306.945 65.919C304.27 67.4306 300.88 68.0429 297.987 66.9511C303.964 60.8965 304.725 50.8651 299.714 44.0739C298.295 42.1469 296.46 40.4426 295.581 38.2497C294.194 34.7507 295.527 30.8982 296.369 27.2501C297.155 23.8548 297.293 19.8144 294.869 17.3261C295.128 16.9784 295.481 16.7016 295.891 16.5241C296.301 16.3466 296.754 16.2748 297.204 16.316C298.698 16.5144 299.786 17.7351 300.479 18.9924C301.172 20.2496 301.629 21.6431 302.595 22.729C304.383 24.7616 307.428 25.2421 309.994 26.3133C316.21 28.9147 319.864 35.4692 320.013 41.859Z" fill="#2F2E41"/>
<path d="M159.891 315.248C159.89 315.347 159.911 315.445 159.951 315.537C159.991 315.628 160.05 315.711 160.124 315.781C160.199 315.851 160.287 315.907 160.385 315.944C160.482 315.982 160.586 316.001 160.691 316.001H331.104C331.317 316.001 331.52 315.922 331.671 315.781C331.821 315.639 331.905 315.448 331.905 315.248C331.905 315.049 331.821 314.858 331.671 314.716C331.52 314.575 331.317 314.496 331.104 314.496H160.691C160.586 314.496 160.482 314.515 160.385 314.553C160.287 314.59 160.199 314.646 160.124 314.716C160.05 314.786 159.991 314.869 159.951 314.96C159.911 315.052 159.89 315.15 159.891 315.248Z" fill="#CCCCCC"/>
<path d="M321.354 174.953C324.698 174.953 327.409 172.405 327.409 169.263C327.409 166.12 324.698 163.572 321.354 163.572C318.01 163.572 315.299 166.12 315.299 169.263C315.299 172.405 318.01 174.953 321.354 174.953Z" fill="#49A760"/>
<path d="M267.696 38.5769C268.052 37.4088 265.604 44.549 266.785 44.6779C272.165 45.2579 279.55 48.2772 283.298 49.6858C283.466 49.6674 283.635 49.649 283.799 49.626C284.201 49.5845 284.593 49.5247 284.98 49.4557C293.705 47.9044 297.061 35.3098 297.061 35.1947C297.061 34.6285 295.615 19.0776 293.337 18.8475C292.738 18.7865 292.137 18.7557 291.535 18.7554H285.882C284.712 18.5185 283.526 18.3571 282.333 18.2721H282.323C270.943 17.4573 261.969 23.9754 262.808 31.9068C262.813 31.916 262.823 31.9252 262.828 31.9345C263.071 32.2751 263.285 32.5973 263.473 32.9057C263.657 33.1957 263.811 33.4719 263.945 33.7343C264.982 35.7597 262.315 38.3084 264.084 38.7841C266.435 39.4168 257.899 60.2121 267.207 60.2121C262.679 61.4217 266.717 41.7992 267.696 38.5769Z" fill="#2F2E41"/>
<path d="M277.857 50.779C285.249 50.779 291.241 45.1481 291.241 38.202C291.241 31.2559 285.249 25.625 277.857 25.625C270.465 25.625 264.473 31.2559 264.473 38.202C264.473 45.1481 270.465 50.779 277.857 50.779Z" fill="#FFCC99"/>
<path d="M262.809 32.592C263.032 32.7025 263.25 32.8037 263.474 32.905C263.707 33.0109 263.94 33.1168 264.173 33.2134C268.655 35.1238 272.303 35.3355 274.517 32.592C274.576 31.1484 274.921 29.7278 275.534 28.403C275.426 29.8835 275.841 31.3561 276.715 32.592H281.172C285.763 35.4552 288.121 35.7544 284.934 45.1542C284.046 47.7734 280.514 63.0147 281.903 65.2749C282.305 65.2335 286.582 48.5395 286.969 48.4705C295.695 46.9192 301.239 33.4113 300.529 32.6472C300.532 30.4742 300.001 28.33 298.975 26.3822C297.678 23.9146 295.656 21.8475 293.149 20.4256C291.654 19.7446 290.095 19.1944 288.493 18.7823C288.453 18.7731 288.419 18.7639 288.379 18.7547C287.888 18.6304 287.386 18.5153 286.885 18.4186C285.849 18.2131 284.802 18.0641 283.748 17.9721C283.674 17.9675 283.599 17.9629 283.53 17.9629C283.109 17.9638 282.696 18.0703 282.334 18.2713C282.329 18.2713 282.329 18.2759 282.324 18.2759C282.065 18.4181 281.839 18.6075 281.659 18.8329C281.342 19.2122 281.17 19.681 281.172 20.1632H276.209C276.026 20.1632 275.842 20.1678 275.658 20.177C272.346 20.2834 269.195 21.5475 266.822 23.7219C264.449 25.8964 263.025 28.8247 262.828 31.9337C262.814 32.1547 262.809 32.371 262.809 32.592Z" fill="#2F2E41"/>
<path d="M292.074 28.5716C296.943 28.5716 300.891 24.8619 300.891 20.2858C300.891 15.7097 296.943 12 292.074 12C287.204 12 283.256 15.7097 283.256 20.2858C283.256 24.8619 287.204 28.5716 292.074 28.5716Z" fill="#2F2E41"/>
<path d="M321.423 171.609C321.854 170.972 322.131 170.254 322.237 169.505C322.344 168.757 322.275 167.996 322.037 167.274C321.8 166.553 321.398 165.889 320.86 165.328C320.322 164.767 319.661 164.322 318.923 164.025L318.966 138.04L311.32 136.262L311.509 167.125C311.069 168.33 311.114 169.646 311.637 170.822C312.16 171.998 313.124 172.952 314.346 173.505C315.568 174.058 316.964 174.17 318.268 173.821C319.572 173.471 320.695 172.685 321.423 171.609Z" fill="#FFCC99"/>
<path d="M283.561 76.1558L295.458 68.5576C296.014 68.2031 296.641 67.9616 297.302 67.8486C297.962 67.7356 298.64 67.7536 299.292 67.9014C299.945 68.0492 300.557 68.3236 301.09 68.7069C301.623 69.0902 302.065 69.574 302.387 70.1273L322.843 105.252L322.921 156.658L310.15 155.906L304.907 113.466L283.561 76.1558Z" fill="#49A760"/>
<path d="M192.181 192.736H65.0221C62.2564 192.736 59.6038 193.769 57.6481 195.606C55.6924 197.444 54.5938 199.937 54.5938 202.536C54.5938 205.135 55.6924 207.627 57.6481 209.465C59.6038 211.303 62.2564 212.335 65.0221 212.335H192.181C194.947 212.335 197.599 211.303 199.555 209.465C201.511 207.627 202.609 205.135 202.609 202.536C202.609 199.937 201.511 197.444 199.555 195.606C197.599 193.769 194.947 192.736 192.181 192.736Z" fill="white"/>
<path d="M192.182 212.967H65.0231C62.0788 212.967 59.2552 211.868 57.1733 209.911C55.0915 207.955 53.9219 205.302 53.9219 202.535C53.9219 199.768 55.0915 197.115 57.1733 195.159C59.2552 193.203 62.0788 192.104 65.0231 192.104H192.182C195.126 192.104 197.95 193.203 200.032 195.159C202.114 197.115 203.283 199.768 203.283 202.535C203.283 205.302 202.114 207.955 200.032 209.911C197.95 211.868 195.126 212.967 192.182 212.967ZM65.0231 193.368C62.4357 193.368 59.9543 194.334 58.1248 196.053C56.2953 197.772 55.2675 200.104 55.2675 202.535C55.2675 204.966 56.2953 207.298 58.1248 209.017C59.9543 210.736 62.4357 211.702 65.0231 211.702H192.182C194.769 211.702 197.251 210.736 199.08 209.017C200.91 207.298 201.938 204.966 201.938 202.535C201.938 200.104 200.91 197.772 199.08 196.053C197.251 194.334 194.769 193.368 192.182 193.368H65.0231Z" fill="#49A760"/>
<path d="M199.679 235.502H143.563C142.777 235.502 142.022 235.208 141.466 234.686C140.91 234.163 140.598 233.454 140.598 232.715C140.598 231.976 140.91 231.267 141.466 230.744C142.022 230.221 142.777 229.928 143.563 229.928H199.679C200.466 229.928 201.22 230.221 201.776 230.744C202.332 231.267 202.645 231.976 202.645 232.715C202.645 233.454 202.332 234.163 201.776 234.686C201.22 235.208 200.466 235.502 199.679 235.502Z" fill="#49A760"/>
</g>
<defs>
<clipPath id="clip0_2571_19903">
<rect width="332" height="304" fill="white" transform="translate(0 12)"/>
</clipPath>
</defs>
</svg>