<svg width="60" height="60" viewBox="0 0 60 60" fill="none" xmlns="http://www.w3.org/2000/svg">
<path fill-rule="evenodd" clip-rule="evenodd" d="M52.0544 7.89264L50.8308 7.69639L50.5097 6.48889L52.3556 5.98889L52.0544 7.89264ZM35.6651 25.1801L34.6101 25.8351L34.6077 25.8326L34.6039 25.8264L34.5915 25.8064L34.5494 25.7351L34.4006 25.4764C34.2271 25.1702 34.0597 24.8606 33.8985 24.5476C33.3882 23.564 32.9434 22.5472 32.5671 21.5039C32.148 20.3239 31.7885 18.9726 31.7327 17.6651C31.6782 16.3626 31.9187 14.9489 32.8807 13.8401C33.7448 12.8451 35.3738 11.9289 37.0859 11.1364C38.8599 10.3126 40.9476 9.52264 42.925 8.83889C45.3743 7.99566 47.8483 7.22697 50.3436 6.53389L50.4675 6.49889L50.5109 6.48639L50.8332 7.69514L52.0569 7.89139L52.0494 7.93764L52.0283 8.07014C51.9046 8.837 51.7748 9.60285 51.6391 10.3676C51.3088 12.2484 50.9484 14.1236 50.558 15.9926C50.1167 18.0939 49.6034 20.2964 49.0592 22.1401C48.8167 22.9831 48.5325 23.8134 48.2075 24.6276C47.9248 25.3151 47.5901 25.9826 47.1835 26.4526C46.3132 27.4551 44.9582 27.7689 43.7742 27.8489C42.5395 27.9326 41.1708 27.7814 39.9397 27.5614C38.8418 27.3621 37.7545 27.1076 36.6817 26.7989C36.2428 26.6742 35.8063 26.5409 35.3726 26.3989L35.2945 26.3714L35.2734 26.3639L35.2672 26.3626H35.2647L35.6651 25.1801ZM35.6651 25.1801L34.6101 25.8351L34.8432 26.2164L35.2647 26.3626L35.6651 25.1801ZM36.4982 24.1389C37.7679 24.5369 39.0599 24.8583 40.3674 25.1014C41.513 25.3051 42.6585 25.4201 43.6081 25.3551C44.611 25.2876 45.1144 25.0401 45.3164 24.8076C45.4454 24.6576 45.6561 24.3026 45.9165 23.6701C46.2083 22.9364 46.4636 22.1883 46.6814 21.4289C47.1984 19.6789 47.6955 17.5501 48.1319 15.4764C48.5507 13.4701 48.9342 11.4564 49.2823 9.43639L48.8993 9.54889C47.5244 9.95764 45.6673 10.5339 43.7296 11.2039C41.7882 11.8751 39.7885 12.6339 38.1211 13.4076C36.3904 14.2101 35.2226 14.9389 34.7465 15.4876C34.3659 15.9251 34.17 16.5989 34.2109 17.5576C34.2506 18.5114 34.5221 19.5951 34.9015 20.6589C35.3346 21.8626 35.8688 23.0268 36.4982 24.1389ZM12.7835 11.0389L12.4624 12.2464L11.2375 12.4426L10.9375 10.5401L12.7835 11.0389ZM24.7865 26.4551L25.8415 27.1089L25.844 27.1064L25.8465 27.1014L25.8564 27.0851L25.8924 27.0251L26.0163 26.8126C26.6092 25.7688 27.1131 24.6762 27.5226 23.5464C27.8672 22.5764 28.1673 21.4526 28.2131 20.3576C28.2602 19.2664 28.0594 18.0489 27.2238 17.0864C26.4849 16.2339 25.1175 15.4739 23.729 14.8289C22.2773 14.1551 20.5727 13.5101 18.9623 12.9539C16.9676 12.2677 14.953 11.642 12.9211 11.0776L12.8194 11.0489L12.7835 11.0389L12.4624 12.2464L11.2375 12.4426L11.2437 12.4801L11.2611 12.5889L11.328 12.9964C11.6624 15.0183 12.039 17.0329 12.4574 19.0389C12.8169 20.7489 13.236 22.5451 13.6798 24.0514C13.9029 24.8039 14.136 25.5051 14.3802 26.0964C14.6121 26.6589 14.896 27.2326 15.253 27.6426C16.0216 28.5301 17.2031 28.7926 18.1812 28.8576C19.2127 28.9276 20.3446 28.8014 21.3549 28.6226C22.6238 28.3939 23.8749 28.0748 25.0989 27.6676L25.1622 27.6464L25.1808 27.6401L25.187 27.6376L24.7865 26.4551ZM24.7865 26.4551L25.8415 27.1089L25.6085 27.4914L25.187 27.6376L24.7865 26.4551ZM23.9522 25.4126C24.0307 25.271 24.1224 25.0989 24.2274 24.8964C24.5225 24.3239 24.8894 23.5439 25.1882 22.7014C25.4919 21.8489 25.7052 20.9926 25.7362 20.2514C25.7684 19.5026 25.6122 19.0264 25.358 18.7314C25.0072 18.3289 24.1022 17.7539 22.6926 17.1001C21.3488 16.4764 19.7321 15.8626 18.1577 15.3189C16.7862 14.8467 15.4048 14.4041 14.0145 13.9914L14.0195 14.0226C14.2302 15.2226 14.5302 16.8426 14.8836 18.5214C15.2369 20.2039 15.6398 21.9251 16.0563 23.3389C16.2659 24.0464 16.4717 24.6576 16.67 25.1376C16.8808 25.6464 17.0394 25.9051 17.1188 25.9976C17.2205 26.1139 17.549 26.3101 18.3474 26.3639C19.0924 26.4139 20.0024 26.3239 20.9248 26.1601C21.9485 25.9748 22.9596 25.726 23.9522 25.4126ZM21.2372 37.3289C20.9223 37.3464 20.7686 37.3914 20.7289 37.4089C20.1673 37.6651 18.4614 38.2651 16.9886 38.7714C16.2324 39.0326 15.5071 39.2776 14.9716 39.4589L14.9369 39.4714V46.2251C15.1551 46.2151 15.3894 46.2064 15.6286 46.1976C16.6551 46.1601 17.8763 46.1226 18.4056 46.1451C20.6272 46.2339 22.2959 46.7639 23.8406 47.2551L23.8741 47.2664C25.3221 47.7264 26.6635 48.1489 28.4202 48.2826C28.9161 48.3201 29.3983 48.3689 29.8483 48.4139H29.8545C31.5827 48.5889 32.7208 48.6764 33.6022 48.3539C34.2878 48.1026 36.7983 46.9289 39.3298 45.6451C40.5819 45.0101 41.8093 44.3639 42.7849 43.8101C43.2746 43.5326 43.6899 43.2851 44.0085 43.0776C44.1664 42.9743 44.2937 42.8868 44.3904 42.8151L44.5019 42.7276L44.5367 42.6976C44.6606 42.5714 44.792 42.1314 44.5788 41.7176C44.4785 41.5242 44.3126 41.3734 44.1114 41.2926C43.8635 41.1839 43.442 41.1001 42.7725 41.2114C41.2625 41.4614 39.4587 42.1939 37.6574 42.9326L37.6326 42.9439C36.7474 43.3064 35.8598 43.6701 35.0726 43.9351C34.3163 44.1889 33.477 44.4164 32.7456 44.3726C31.7414 44.3101 29.9797 44.0476 28.5268 43.8101C27.6918 43.674 26.8579 43.5315 26.025 43.3826L25.8638 43.3539L25.8068 43.3426L26.0424 40.8626L31.7079 40.9314H31.7203C31.7865 40.9242 31.852 40.9117 31.9162 40.8939C32.1121 40.8439 32.4481 40.7201 32.8708 40.4189C33.001 40.3251 33.1721 40.1526 33.332 39.9214C33.3981 39.8247 33.4543 39.7306 33.5006 39.6389C32.8099 39.5941 32.1236 39.4963 31.4476 39.3464C31.0795 39.2656 30.7144 39.1718 30.3529 39.0651L30.3108 39.0526L23.372 37.4951L23.3063 37.4839L23.0459 37.4439C22.7624 37.4019 22.4775 37.3698 22.1918 37.3476C21.8743 37.3208 21.5554 37.3145 21.2372 37.3289ZM23.615 36.2714L23.8394 35.0426L23.8617 35.0464L30.9505 36.6364L31.0025 36.6526L31.0124 36.6564L31.0596 36.6701L31.2554 36.7264C31.4278 36.7739 31.6757 36.8389 31.9708 36.9039C32.5733 37.0351 33.327 37.1564 34.0237 37.1564C34.7217 37.1564 35.4804 37.4189 35.8895 38.1664C36.2391 38.8064 36.1524 39.4989 36.0296 39.9564C35.9154 40.3608 35.7456 40.747 35.5251 41.1039C35.9028 40.9539 36.302 40.7922 36.7226 40.6189L36.7995 40.5864C38.5079 39.8864 40.5559 39.0464 42.3696 38.7451C44.4771 38.3976 46.0578 39.1601 46.7806 40.5701C47.4178 41.8139 47.2765 43.4539 46.3033 44.4514C46.059 44.7014 45.6958 44.9551 45.3487 45.1814C44.9065 45.4634 44.4567 45.7331 43.9999 45.9901C42.9771 46.5701 41.7113 47.2364 40.4418 47.8801C37.9351 49.1514 35.2945 50.3951 34.4465 50.7051C32.9762 51.2426 31.2753 51.0714 29.764 50.9189L29.6066 50.9026C29.1492 50.8554 28.6913 50.8137 28.233 50.7776C26.175 50.6201 24.5981 50.1189 23.1575 49.6614L23.1265 49.6514C21.5769 49.1589 20.1809 48.7201 18.3065 48.6439C17.8949 48.6276 16.7865 48.6576 15.7179 48.6976C15.1161 48.7197 14.5144 48.7442 13.9129 48.7714L13.7529 48.7789L12.4562 48.8389V37.6689L13.5434 37.3051C14.4256 37.0095 15.3067 36.7104 16.1865 36.4076C17.7287 35.8764 19.2834 35.3251 19.7073 35.1326C20.1623 34.9251 20.6793 34.8576 21.0934 34.8326C21.5335 34.8076 21.986 34.8264 22.3814 34.8564C22.8574 34.8947 23.3315 34.9544 23.8022 35.0351L23.8282 35.0401H23.8356L23.8381 35.0414H23.8406L23.615 36.2714Z" fill="#255946"/>
<path fill-rule="evenodd" clip-rule="evenodd" d="M43.6393 15.1214C43.763 15.2281 43.8647 15.3584 43.9385 15.5047C44.0124 15.651 44.0569 15.8105 44.0695 15.9742C44.0822 16.1379 44.0628 16.3024 44.0123 16.4585C43.9619 16.6146 43.8815 16.7592 43.7757 16.8839C40.08 21.2314 35.4794 27.6027 33.4487 32.7814C33.3888 32.9341 33.2997 33.0734 33.1864 33.1913C33.0731 33.3092 32.9379 33.4035 32.7884 33.4687C32.639 33.5339 32.4783 33.5689 32.3155 33.5715C32.1527 33.5741 31.991 33.5443 31.8396 33.4839C31.6881 33.4235 31.55 33.3336 31.4331 33.2194C31.3161 33.1052 31.2226 32.9688 31.1579 32.8182C31.0932 32.6675 31.0586 32.5055 31.056 32.3413C31.0534 32.1772 31.0829 32.0141 31.1428 31.8614C33.3285 26.2877 38.1485 19.6614 41.8913 15.2577C42.1053 15.0061 42.4098 14.8505 42.7376 14.8252C43.0654 14.7999 43.3897 14.9069 43.6393 15.1227M19.1298 19.1314C19.002 19.2332 18.8953 19.3593 18.8158 19.5027C18.7363 19.646 18.6857 19.8037 18.6667 19.9668C18.6477 20.1299 18.6607 20.2952 18.7051 20.4532C18.7495 20.6112 18.8243 20.7588 18.9253 20.8877C21.7048 24.4439 24.7396 28.9952 26.1802 32.7702C26.3039 33.0715 26.5394 33.3121 26.8366 33.4408C27.1338 33.5694 27.4691 33.5759 27.7709 33.4588C28.0727 33.3417 28.3172 33.1103 28.4522 32.814C28.5872 32.5176 28.6021 32.1799 28.4935 31.8727C26.9178 27.7427 23.6982 22.9539 20.8717 19.3402C20.6683 19.0798 20.3706 18.9116 20.0442 18.8724C19.7178 18.8333 19.3881 18.9265 19.1298 19.1314Z" fill="#255946"/>
<path d="M7.5 34.8214H14.9384V51.0714H7.5V34.8214Z" fill="#255946"/>
</svg>
