<svg width="28" height="28" viewBox="0 0 28 28" fill="none" xmlns="http://www.w3.org/2000/svg">
<path d="M25.5173 1.05664H2.48508C1.69617 1.05664 1.05664 1.69617 1.05664 2.48508V25.5173C1.05664 26.3062 1.69617 26.9457 2.48508 26.9457H25.5173C26.3062 26.9457 26.9457 26.3062 26.9457 25.5173V2.48508C26.9457 1.69617 26.3062 1.05664 25.5173 1.05664Z" fill="#3D5A98"/>
<path d="M18.9166 26.943V16.9177H22.281L22.7841 13.0108H18.9166V10.5171C18.9166 9.38614 19.2316 8.61396 20.8526 8.61396H22.922V5.11396C21.9199 5.00971 20.9129 4.96006 19.9054 4.96521C16.926 4.96521 14.8741 6.78083 14.8741 10.1299V13.0108H11.5098V16.9177H14.8741V26.943H18.9166Z" fill="white"/>
</svg>
