<svg width="60" height="60" viewBox="0 0 60 60" fill="none" xmlns="http://www.w3.org/2000/svg">
<path d="M47.3 35C46.9559 37.3873 46.1207 39.6772 44.847 41.7254C43.5733 43.7736 41.8889 45.5356 39.9 46.9C39.4 44.825 36.325 43.125 32.3 42.65C32.725 39.675 33.6 36.9 34.2 35.3C35.15 35.9 36.25 36.25 37.5 36.25C46.375 36.25 45 21.25 45 21.25C45 21.25 43.75 23.75 40 23.75H37.5C36.3879 23.7497 35.2959 24.0461 34.3366 24.6086C33.3774 25.1712 32.5855 25.9795 32.0429 26.9502C31.5002 27.9208 31.2264 29.0187 31.2496 30.1305C31.2728 31.2423 31.5923 32.3278 32.175 33.275C33.825 31.55 35.6 30 37.5 28.75C34.2 32.075 31.675 36.25 30 40.25C28.425 37.175 26.45 34.825 25 33.75C26.175 34.25 27.275 35 28.325 35.75C28.6 35.15 28.75 34.475 28.75 33.75C28.625 26.925 17.5 27.5 17.5 27.5C18.275 28.55 18.75 29.875 18.75 31.25V33.75C18.75 36.5 21 38.75 23.75 38.75C25 38.75 26.125 38.3 27 37.5C27.575 39.075 28 40.875 28.225 42.6C23.925 42.975 20.625 44.725 20.1 46.925C15.525 43.75 12.5 38.475 12.5 32.5C12.5 22.85 20.35 15 30 15V22.5L42.5 12.5L30 2.5V10C24.0326 10 18.3097 12.3705 14.0901 16.5901C9.87053 20.8097 7.5 26.5326 7.5 32.5C7.5 38.4674 9.87053 44.1903 14.0901 48.4099C18.3097 52.6295 24.0326 55 30 55C41.575 55 51.1 46.25 52.35 35H47.3Z" fill="#255946"/>
</svg>
