<svg width="60" height="60" viewBox="0 0 60 60" fill="none" xmlns="http://www.w3.org/2000/svg">
<path d="M41.7994 38.741L45.2166 41.0181C45.5479 41.2391 45.9513 41.3248 46.3438 41.2576C46.7363 41.1904 47.0882 40.9753 47.3271 40.6567L51.9997 34.4266L49.5077 32.5575L45.7182 37.6102L42.2729 35.3113C41.9365 35.0865 41.5259 35.0015 41.1279 35.0742C40.7299 35.1469 40.3759 35.3715 40.1406 35.7006L35.1783 42.6488V30.377H32.0632V45.9524C32.0632 46.7785 32.3914 47.5709 32.9756 48.1551C33.5598 48.7392 34.3521 49.0674 35.1783 49.0674H50.7537V45.9524H36.6471L41.7994 38.741ZM7.14258 38.1647H28.9481V41.2797H7.14258V38.1647ZM7.14258 45.9524H28.9481V49.0674H7.14258V45.9524ZM21.1604 30.377V22.5893H22.718C24.3697 22.5872 25.9532 21.9302 27.1211 20.7622C28.289 19.5943 28.9461 18.0108 28.9481 16.3591V11.6865H24.2755C22.6806 11.6894 21.1482 12.307 19.997 13.4107C19.1908 11.9459 18.0064 10.7242 16.5673 9.87307C15.1282 9.02189 13.4872 8.57238 11.8152 8.57141H7.14258V13.244C7.14546 15.7217 8.13097 18.097 9.88292 19.8489C11.6349 21.6009 14.0102 22.5864 16.4878 22.5893H18.0454V30.377H7.14258V33.492H28.9481V30.377H21.1604ZM24.2755 14.8016H25.8331V16.3591C25.8331 17.1853 25.5049 17.9776 24.9207 18.5618C24.3365 19.146 23.5441 19.4742 22.718 19.4742H21.1604V17.9166C21.1604 17.0905 21.4886 16.2981 22.0728 15.714C22.657 15.1298 23.4493 14.8016 24.2755 14.8016ZM16.4878 19.4742C14.8361 19.4721 13.2526 18.8151 12.0847 17.6471C10.9168 16.4792 10.2597 14.8957 10.2577 13.244V11.6865H11.8152C13.4669 11.6886 15.0504 12.3456 16.2183 13.5135C17.3862 14.6815 18.0433 16.2649 18.0454 17.9166V19.4742H16.4878Z" fill="#255946"/>
</svg>
