<svg width="2247" height="1321" viewBox="0 0 2247 1321" fill="none" xmlns="http://www.w3.org/2000/svg">
<path fill-rule="evenodd" clip-rule="evenodd" d="M144.185 422.419C135.382 397.386 133.528 361.619 139.431 318.754L139.429 318.75C174.373 342.689 198.484 369.193 210.223 393.54L196.279 450.233L144.185 422.419ZM545.403 169.827C548.775 142.756 562.9 108.617 586.909 71.1241L586.911 71.1235C606.832 108.189 616.194 143.068 615.719 170.736L578.572 217.825L545.403 169.827ZM494.039 163.218C494.039 163.217 494.039 163.217 494.039 163.216L494.038 163.217C494.039 163.217 494.039 163.217 494.039 163.218ZM494.039 163.218C494.611 193.593 498.618 220.236 505.142 242.063L561.766 294.366L564.705 242.73L519.497 177.384L519.533 177.364C511.261 172.295 502.756 167.576 494.039 163.218ZM138.444 502.316C122.741 486.039 107.254 464.495 93.3346 438.236C103.379 438.366 113.384 438.894 123.327 439.821L123.31 439.876L194.313 477.792L214.318 524.035L138.444 502.316ZM236.499 389.198C242.863 379.952 250.011 370.515 257.925 360.946C267.159 387.971 272.409 413.265 273.99 435.584L237.446 513.206L217.423 467.02L236.499 389.198ZM482.059 266.326C482.059 266.326 482.059 266.325 482.059 266.325L482.056 266.325C482.057 266.325 482.058 266.326 482.059 266.326ZM482.059 266.326C488.419 347.515 521.733 386.795 556.769 382.598L559.919 327.378L499.584 271.689C493.801 269.752 487.957 267.963 482.059 266.326ZM640.496 177.857C645.512 174.747 650.71 171.657 656.147 168.637L656.144 168.637C661.129 165.869 666.31 163.145 671.631 160.464C667.782 189.581 661.192 215.408 652.735 236.907L586.692 294.014L589.613 242.345L640.496 177.857ZM377.361 434.119C373.507 407.611 378.373 371.65 392.065 330.031C421.506 360.09 439.958 390.784 446.831 417.128L422.776 471.165L377.361 434.119ZM248.538 603.131C217.678 621.549 169.254 601.325 127.551 533.204C133.79 532.145 140.046 531.238 146.31 530.485L227.1 553.589L248.538 603.131ZM285.719 467.418C291.954 461.374 298.388 455.531 305.009 449.9L305.008 449.902C327.129 530.38 307.502 582.402 271.422 591.755L250.228 542.761L285.719 467.418ZM356.903 512.712C344.702 493.696 333.698 469.498 325.082 440.88L325.084 440.879C334.807 442.803 344.416 445.122 353.888 447.83L353.852 447.85L415.731 498.29L426.551 547.926L356.903 512.712ZM584.825 326.985L649.011 271.562C657.099 268.564 665.272 265.833 673.513 263.376C657.343 347.866 617.306 388.15 581.713 381.637L584.825 326.985ZM473.177 417.52C481.064 409.436 489.713 401.299 499.173 393.171L499.172 393.173C503.108 421.753 503.467 447.914 500.844 470.439L450.945 541.263L440.124 491.625L473.177 417.52ZM674.223 391.913C678.012 370.02 686.332 344.717 699.055 317.218C712.17 334.585 722.357 351.778 729.624 368.094C724.189 369.377 718.767 370.893 713.359 372.641C699.287 377.416 686.242 383.84 674.223 391.913ZM640.487 427.96C645.818 417.073 653.679 407.526 664.068 399.319C667.367 396.713 670.752 394.244 674.223 391.913C672.486 401.949 671.701 411.269 671.881 419.755L712.061 462.12L742.338 410.826C740.627 397.722 736.392 383.289 729.624 368.094C743.016 364.933 756.491 363.182 770.051 362.841C789.21 361.764 805.707 363.92 819.542 369.309C833.378 374.697 842.762 383.018 847.696 394.27C853.226 405.623 851.478 420.353 842.452 438.46C829.568 460.306 818.286 479.422 808.606 495.809C802.408 498.709 796.281 501.77 790.231 504.988L790.231 504.987L734.198 568.181L738.291 613.575L709.726 659.01C713.378 659.803 717.347 660.438 721.631 660.914C723.725 667.953 726.309 674.96 729.5 681.867L751.761 669.335C750.666 666.889 749.657 664.419 748.725 661.924C751.722 661.862 754.815 661.752 758.003 661.595C793.839 659.638 819.319 661.156 834.443 666.147C834.921 663.162 837.226 658.336 841.356 651.671C869.731 581.623 899.236 517.897 929.871 460.493C952.82 412.836 995.499 393.019 1057.91 401.042C1082.36 405.146 1099.89 414.221 1110.51 428.266C1122.21 443.109 1121.28 460.428 1107.69 480.223C1028.13 625.075 969.89 740.086 932.968 825.255C890.863 923.659 862.764 990.074 848.673 1024.5C835.178 1059.03 824.922 1079.07 817.905 1084.64C810.888 1090.21 803.908 1093.64 796.965 1094.92C790.522 1096.91 784.127 1098.59 777.78 1099.98C771.433 1101.37 765.705 1106.54 760.595 1115.49L757.911 1115.04C751.418 1124.99 739.641 1131.6 722.58 1134.87C705.52 1138.14 688.784 1137.47 672.371 1132.88C656.46 1128.98 643.699 1120.71 634.09 1108.06C624.981 1096.1 624.833 1079.83 633.646 1059.23C645.064 1026.2 660.743 991.422 680.68 954.911C700.714 917.802 716.378 888.851 727.672 868.059C739.562 847.366 749.723 827.916 758.153 809.708C752.998 811.296 747.94 812.287 742.977 812.68C738.611 813.173 732.861 814.661 725.726 817.143C718.687 819.027 711.397 820.563 703.858 821.75L683.028 825.612C665.275 829.378 650.505 833.644 638.717 838.41L628.369 851.39L567.914 953.459C559.271 969.177 551.128 985.593 543.486 1002.71C535.844 1019.82 528.286 1034.49 520.813 1046.73C513.244 1059.56 503.172 1068.91 490.596 1074.77C478.616 1080.73 465.481 1084.35 451.189 1085.63C436.802 1087.51 422.201 1086.9 407.386 1083.8C393.168 1080.8 380.775 1075.96 370.209 1069.28C346.477 1053.03 340.689 1031.83 352.844 1005.66C374.563 951.778 395.07 902.984 414.366 859.277L430.354 850.277C427.541 847.556 424.768 844.808 422.034 842.035C439.321 803.449 455.602 769.087 470.877 738.948C477.794 764.416 485.902 789.33 495.496 813.604L517.906 800.988C505.905 770.24 496.29 738.28 488.456 705.271C519.022 647.42 544.133 601.145 563.789 566.448C567.033 560.887 570.296 555.28 573.578 549.627C585.538 611.824 604.683 673.602 634.647 735.263L656.947 722.709C623.696 654.073 604.221 585.392 593.213 515.671C604.393 496.258 615.792 476.333 627.41 455.895C631.579 470.824 636.551 484.259 642.124 496.021L706.453 539.475L701.838 488.486L647.094 430.746L647.165 430.706C644.975 429.776 642.749 428.861 640.487 427.96ZM619.562 420.392C621.684 432.996 624.328 444.854 627.41 455.895C629.974 451.386 632.548 446.851 635.133 442.292C636.477 437.281 638.261 432.504 640.487 427.96C633.824 425.306 626.85 422.779 619.562 420.392ZM619.562 420.392C619.562 420.391 619.562 420.39 619.562 420.39L619.561 420.392C619.562 420.392 619.562 420.392 619.562 420.392ZM593.213 515.671C587.525 479.647 584.098 443.346 582.198 406.629L557.299 409.563L557.301 409.564C559.732 456.569 564.655 503.215 573.578 549.627C580.046 538.488 586.591 527.169 593.213 515.671ZM488.456 705.271C484.183 687.262 480.44 668.94 477.129 650.333L452.544 656.195L452.546 656.196C457.552 684.337 463.546 711.954 470.877 738.948C472.695 735.36 474.5 731.832 476.29 728.363C480.437 720.471 484.493 712.774 488.456 705.271ZM422.034 842.035C359.172 778.277 316.863 700.907 283.582 614.917L260.172 624.95L260.17 624.951C294.759 714.318 339.502 796.024 407.196 863.314L414.366 859.277C416.944 853.439 419.5 847.692 422.034 842.035ZM748.725 661.924C746.688 656.468 745.02 650.89 743.631 645.183L719.329 652.385L719.328 652.387C720.022 655.231 720.787 658.075 721.631 660.914C729.575 661.796 738.606 662.133 748.725 661.924ZM738.291 613.575L739.067 622.17C775.623 623.622 809.774 578.561 813.634 493.499C811.953 494.257 810.277 495.027 808.606 495.809C795.54 517.927 785.393 535.072 778.165 547.244C765.583 568.434 754.278 587.385 744.25 604.098L738.291 613.575ZM340.633 541.621C340.633 541.62 340.633 541.619 340.633 541.619L340.632 541.62C340.633 541.62 340.633 541.621 340.633 541.621ZM340.633 541.621C368.439 616.948 411.643 645.693 445.014 632.797L433.47 579.649L359.333 542.22C353.117 541.865 346.882 541.666 340.633 541.621ZM506.297 504.221C513.186 499.489 520.509 494.812 528.289 490.198C534.783 574.362 506.071 622.703 469.295 625.56L457.882 573.018L506.297 504.221ZM768.237 414.262C776.977 407.091 786.485 399.976 796.783 392.946C797.176 422.028 794.34 448.26 789.014 470.511L731.273 535.578L726.697 484.661L768.237 414.262ZM714.288 626.586C679.865 635.618 640.832 601.772 622.636 523.09C628.95 523.892 635.062 524.807 640.954 525.867L709.363 572.038L714.288 626.586ZM739.078 808.346C739.675 808.446 742.8 808.051 748.455 807.161C744.685 807.754 741.56 808.15 739.078 808.346Z" fill="#55895F"/>
<path d="M1044.42 954.049L1045.57 954.337C1045.96 954.337 1046.15 954.433 1046.15 954.626C1051.14 952.705 1055.27 954.145 1058.54 958.947C1060.65 962.212 1062.28 967.206 1063.44 973.928C1063.82 983.147 1062.86 995.92 1060.56 1012.25C1056.14 1045.28 1053.74 1064.97 1053.35 1071.31C1053.74 1078.03 1049.61 1082.64 1040.96 1085.13C1033.47 1087.44 1025.98 1087.34 1018.49 1084.85C1010.62 1082.16 1007.35 1078.03 1008.7 1072.46C1007.16 1075.34 1005.62 1077.36 1004.09 1078.51C1002.55 1079.85 999.478 1081.58 994.869 1083.69C990.451 1086 984.113 1087.82 975.854 1089.17C967.595 1090.7 959.337 1091.09 951.078 1090.32C942.819 1089.74 935.232 1087.73 928.318 1084.27C921.596 1081 917.082 1075.82 914.777 1068.71C910.36 1054.88 910.936 1037.31 916.506 1015.99C920.347 1001.97 927.262 989.581 937.249 978.826C948.773 966.534 961.834 956.354 976.431 948.287C987.378 942.333 997.942 938.78 1008.12 937.628C1011.58 937.244 1014.56 937.34 1017.05 937.916C1019.74 938.492 1022.53 939.068 1025.41 939.644C1028.48 940.221 1031.36 941.085 1034.05 942.237C1040.96 945.118 1044.42 949.056 1044.42 954.049ZM991.124 1030.4C992.468 1027.71 993.524 1024.35 994.293 1020.31C995.253 1016.28 996.501 1011.86 998.038 1007.06C982.481 1013.4 970.573 1021.18 962.314 1030.4C953.287 1040.57 953.863 1047.59 964.042 1051.43C972.877 1053.73 979.311 1052.29 983.345 1047.11C985.073 1044.8 986.61 1041.92 987.954 1038.46C989.299 1035 990.931 1031.45 992.852 1027.8C992.276 1028.76 991.7 1029.63 991.124 1030.4ZM1096.89 958.371C1099.58 951.456 1103.33 946.271 1108.13 942.813C1113.12 939.164 1117.83 936.955 1122.25 936.187C1126.86 935.227 1130.6 935.707 1133.48 937.628C1136.56 939.548 1137.61 942.525 1136.65 946.559C1140.3 942.91 1145.58 939.548 1152.5 936.475C1159.41 933.402 1164.89 931.29 1168.92 930.137C1172.95 928.985 1176.41 928.409 1179.29 928.409C1185.63 928.793 1187.45 932.25 1184.76 938.78C1188.03 939.356 1190.43 941.469 1191.97 945.118C1193.5 948.768 1193.69 952.801 1192.54 957.218C1191.39 961.636 1188.8 965.957 1184.76 970.183C1180.73 974.408 1175.26 977.289 1168.34 978.826C1161.62 980.362 1155.95 983.916 1151.34 989.485C1146.93 994.863 1142.99 1001.59 1139.53 1009.65C1133.77 1023.29 1128.58 1042.59 1123.98 1067.56C1122.44 1076.59 1116.2 1084.17 1105.25 1090.32C1094.88 1096.27 1085.37 1098 1076.73 1095.51C1066.93 1092.82 1062.61 1085.61 1063.76 1073.9C1064.15 1065.64 1066.64 1054.69 1071.25 1041.06C1075.86 1027.23 1079.42 1016.85 1081.91 1009.94C1084.41 1002.83 1086.14 997.456 1087.1 993.807L1096.89 958.371ZM1245.11 949.728C1246.07 961.252 1246.93 972.872 1247.7 984.588C1248.47 996.112 1249.62 1007.64 1251.16 1019.16C1254.62 1012.05 1257.79 1004.56 1260.67 996.688C1263.74 988.813 1267 981.035 1270.46 973.352C1278.72 955.298 1287.84 942.045 1297.83 933.594C1303.98 926.872 1313.2 923.511 1325.49 923.511C1332.79 923.511 1337.4 925.816 1339.32 930.425C1340.28 932.73 1339.99 935.803 1338.45 939.644C1347.86 946.367 1349.88 954.145 1344.5 962.98C1342.97 965.285 1341.43 967.398 1339.89 969.319C1331.63 983.147 1324.05 995.92 1317.13 1007.64C1305.8 1027.03 1295.62 1043.65 1286.6 1057.48C1283.52 1062.09 1279.2 1067.27 1273.63 1073.03C1268.25 1078.6 1262.3 1083.41 1255.77 1087.44C1240.4 1097.43 1228.21 1099.25 1219.18 1092.91C1213.23 1092.14 1207.66 1090.22 1202.47 1087.15C1197.28 1084.08 1193.35 1080.04 1190.66 1075.05C1186.63 1064.49 1187.59 1040.29 1193.54 1002.45C1194.88 993.999 1195.75 987.661 1196.13 983.435C1196.52 979.21 1197 975.369 1197.57 971.911C1198.15 968.454 1198.63 965.189 1199.01 962.116C1199.4 959.043 1199.78 955.97 1200.17 952.897C1200.55 949.632 1201.41 946.655 1202.76 943.966C1206.02 937.82 1211.98 934.459 1220.62 933.882H1224.08C1227.54 934.651 1230.8 935.515 1233.87 936.475C1239.06 938.396 1242.52 942.045 1244.25 947.423C1244.44 947.999 1244.73 948.768 1245.11 949.728ZM1428.57 1035C1424.92 1036.73 1421.36 1038.08 1417.91 1039.04C1414.45 1040 1410.42 1040.96 1405.81 1041.92C1393.71 1044.42 1384.97 1045.86 1379.59 1046.24C1380.17 1048.16 1383.05 1050.47 1388.23 1053.16C1391.69 1053.73 1395.44 1053.25 1399.47 1051.71C1403.69 1049.99 1408.02 1048.45 1412.43 1047.11C1417.04 1045.57 1421.46 1044.7 1425.69 1044.51C1430.1 1044.32 1434.23 1045.95 1438.07 1049.41C1439.61 1052.87 1440.86 1054.88 1441.82 1055.46C1442.78 1056.04 1443.64 1056.32 1444.41 1056.32C1445.18 1056.32 1446.05 1056.61 1447.01 1057.19C1447.97 1057.76 1449.31 1059.97 1451.04 1063.81C1452.96 1067.66 1452.48 1071.31 1449.6 1074.76C1446.91 1078.22 1442.68 1081.2 1436.92 1083.69C1431.16 1086.19 1424.44 1088.21 1416.76 1089.74C1409.07 1091.28 1401.39 1092.34 1393.71 1092.91C1376.42 1094.26 1363.26 1092.91 1354.24 1088.88C1341.18 1084.46 1332.73 1075.72 1328.89 1062.66C1323.89 1045.38 1326.68 1025.21 1337.24 1002.16C1342.04 991.406 1349.63 979.882 1360 967.59C1369.03 956.834 1379.11 949.056 1390.25 944.254C1403.12 938.684 1416.56 936.091 1430.58 936.475C1445.57 936.859 1455.94 943.39 1461.7 956.066C1464.58 962.788 1465.16 972.2 1463.43 984.3C1460.35 1000.05 1456.32 1011.19 1451.33 1017.72C1446.33 1024.06 1438.75 1029.82 1428.57 1035ZM1411.86 989.485C1401.68 987.373 1393.71 993.135 1387.95 1006.77C1386.22 1010.42 1384.87 1014.26 1383.91 1018.3C1390.44 1019.06 1397.36 1015.41 1404.66 1007.35C1407.34 1004.08 1409.36 1000.82 1410.71 997.552C1412.05 994.095 1412.43 991.406 1411.86 989.485ZM1571.3 1084.56C1563.81 1090.7 1554.88 1095.31 1544.5 1098.39C1534.32 1101.65 1524.05 1103.38 1513.68 1103.57C1503.31 1103.76 1493.61 1102.52 1484.58 1099.83C1475.55 1097.14 1468.45 1092.91 1463.26 1087.15C1457.11 1080.62 1455 1074.09 1456.92 1067.56C1457.88 1064.87 1459.61 1062.76 1462.11 1061.22C1464.41 1059.69 1467.29 1059.3 1470.75 1060.07C1473.06 1060.26 1474.69 1059.69 1475.65 1058.34C1476.8 1056.8 1477.76 1055.17 1478.53 1053.44C1479.3 1051.52 1480.16 1049.79 1481.12 1048.26C1482.08 1046.53 1483.62 1045.66 1485.73 1045.66C1519.54 1046.62 1537.11 1043.65 1538.45 1036.73C1536.15 1034.62 1533.27 1032.8 1529.81 1031.26C1526.55 1029.72 1523.19 1028.19 1519.73 1026.65C1511.28 1022.81 1505.61 1018.58 1502.73 1013.97C1499.08 1012.05 1496.3 1007.44 1494.38 1000.15C1493.41 996.88 1492.93 993.519 1492.93 990.062C1492.93 986.604 1493.51 983.435 1494.66 980.554C1494.09 973.064 1498.7 964.805 1508.49 955.778C1511.18 953.281 1514.54 950.592 1518.58 947.711C1522.61 944.83 1528.66 942.045 1536.73 939.356C1544.79 936.667 1552.76 934.747 1560.64 933.594C1568.7 932.25 1575.91 931.77 1582.25 932.154C1588.78 932.538 1593.39 934.075 1596.07 936.763C1598.95 939.452 1601.16 942.813 1602.7 946.847C1604.43 950.88 1605.01 954.818 1604.43 958.659C1602.89 967.302 1595.79 973.256 1583.11 976.521C1567.17 978.826 1559.49 980.939 1560.06 982.859C1560.06 983.243 1559.39 983.723 1558.04 984.3C1572.83 994.479 1583.11 1004.47 1588.87 1014.26C1596.75 1027.71 1597.9 1042.69 1592.33 1059.21C1593.29 1064.58 1588.49 1071.31 1577.92 1079.37C1575.43 1081.29 1573.22 1083.02 1571.3 1084.56ZM1690.82 862.146L1691.11 860.994L1693.7 858.401C1695.81 853.407 1698.12 850.43 1700.61 849.47C1701.96 849.085 1703.69 848.605 1705.8 848.029C1707.91 847.453 1710.7 846.012 1714.15 843.708C1715.5 841.019 1718.28 839.866 1722.51 840.25C1726.73 840.443 1730.86 841.787 1734.9 844.284C1739.12 846.589 1742.48 849.854 1744.98 854.079C1747.67 858.305 1748.34 862.722 1747 867.332C1745.65 871.749 1744.5 875.11 1743.54 877.415C1742.77 879.528 1741.91 881.545 1740.95 883.465C1740.18 885.386 1739.12 887.595 1737.78 890.091C1736.63 892.396 1735.09 895.565 1733.17 899.599L1723.66 919.478C1722.7 921.974 1721.84 923.415 1721.07 923.799C1720.49 924.183 1719.92 924.855 1719.34 925.816C1721.07 925.432 1722.51 925.143 1723.66 924.951C1724.81 924.759 1725.97 924.567 1727.12 924.375C1729.81 923.991 1732.88 923.607 1736.34 923.223C1738.45 923.607 1740.27 923.799 1741.81 923.799H1745.84C1748.15 923.799 1750.93 924.471 1754.2 925.816C1757.46 926.968 1759.58 929.081 1760.54 932.154C1761.5 935.227 1761.59 938.396 1760.83 941.661C1760.06 944.734 1758.52 947.615 1756.22 950.304C1753.91 952.993 1750.93 954.433 1747.29 954.626C1730.58 959.235 1718.67 961.732 1711.56 962.116L1709.83 964.133V964.421C1707.91 969.03 1705.8 974.888 1703.49 981.995C1701.38 988.909 1698.98 996.496 1696.29 1004.75C1693.79 1012.82 1691.2 1021.27 1688.51 1030.11C1685.82 1038.75 1683.04 1047.11 1680.16 1055.17C1670.94 1082.25 1664.22 1096.95 1659.99 1099.25C1658.45 1100.02 1656.82 1100.5 1655.09 1100.69C1653.56 1101.08 1652.69 1101.36 1652.5 1101.56C1645.78 1101.17 1640.21 1099.83 1635.79 1097.52C1631.37 1095.22 1628.4 1093.01 1626.86 1090.9C1625.32 1088.78 1624.94 1086.38 1625.71 1083.69C1629.36 1050.27 1636.66 1013.69 1647.6 973.928C1643.76 973.928 1641.07 974.312 1639.54 975.081C1636.66 976.617 1633.2 977.481 1629.16 977.673H1628.88C1625.8 977.481 1623.02 976.041 1620.52 973.352C1618.02 970.663 1616.49 967.59 1615.91 964.133C1615.34 960.676 1615.91 957.122 1617.64 953.473C1619.37 949.824 1622.83 946.943 1628.01 944.83C1634.16 943.102 1638.67 941.661 1641.55 940.509C1647.12 938.204 1651.73 936.571 1655.38 935.611C1659.22 934.651 1661.34 934.075 1661.72 933.882C1662.3 933.498 1662.68 933.21 1662.87 933.018C1663.45 932.634 1664.89 932.442 1667.19 932.442C1668.35 926.872 1669.5 921.206 1670.65 915.444C1671.8 909.682 1673.24 903.824 1674.97 897.87C1678.81 884.041 1684.1 872.133 1690.82 862.146ZM1894.37 1046.82C1894.37 1057 1895.62 1065.83 1898.12 1073.32C1898.12 1079.47 1896.68 1083.79 1893.8 1086.29C1890.92 1088.98 1887.27 1090.32 1882.85 1090.32C1878.62 1090.51 1874.11 1089.65 1869.31 1087.73C1864.51 1086 1860.38 1083.79 1856.92 1081.1C1853.65 1078.41 1851.54 1076.3 1850.58 1074.76C1849.62 1073.03 1848.09 1070.54 1845.97 1067.27C1842.71 1052.1 1841.17 1042.21 1841.36 1037.6C1841.55 1032.99 1841.94 1029.05 1842.52 1025.79C1832.91 1030.78 1826.29 1035.1 1822.64 1038.75C1815.91 1045.47 1810.25 1054.12 1805.64 1064.68C1804.1 1073.13 1802.85 1077.55 1801.89 1077.93C1800.93 1078.51 1799.68 1078.89 1798.15 1079.08C1796.61 1079.28 1794.98 1079.95 1793.25 1081.1C1791.52 1082.25 1789.89 1083.21 1788.35 1083.98C1786.82 1084.75 1785.28 1085.52 1783.74 1086.29C1780.09 1088.4 1777.69 1089.46 1776.54 1089.46C1765.59 1092.91 1755.13 1091.38 1745.14 1084.85C1740.91 1081.97 1737.65 1078.32 1735.34 1073.9C1733.04 1069.29 1732.46 1064.39 1733.61 1059.21C1741.87 1023.67 1753.2 987.469 1767.61 950.592C1776.44 928.12 1784.9 910.354 1792.96 897.294C1794.88 894.221 1796.8 890.956 1798.72 887.499C1802.76 880.584 1805.54 875.879 1807.08 873.382C1805.16 868.388 1805.16 864.067 1807.08 860.417C1809.19 856.576 1812.26 853.599 1816.3 851.486C1820.52 849.181 1825.33 847.645 1830.7 846.877C1836.08 846.108 1841.17 846.012 1845.97 846.589C1857.5 848.317 1863.64 852.831 1864.41 860.129C1863.26 863.586 1861.63 867.716 1859.51 872.517C1857.59 877.319 1855.58 882.217 1853.46 887.21C1851.54 892.012 1849.62 896.526 1847.7 900.751C1845.97 904.977 1844.63 908.146 1843.67 910.258C1842.9 912.179 1841.65 915.636 1839.92 920.63C1838.39 925.432 1836.66 930.713 1834.74 936.475C1833.01 942.045 1831.38 947.231 1829.84 952.033L1826.38 962.116C1825.61 964.805 1824.36 968.934 1822.64 974.504C1820.91 979.882 1819.08 986.604 1817.16 994.671C1819.66 992.751 1821.68 990.542 1823.21 988.045C1824.94 985.356 1827.34 982.379 1830.42 979.114C1833.68 975.849 1837.81 972.68 1842.8 969.607C1847.99 966.342 1853.46 964.229 1859.22 963.268C1871.71 961.156 1883.04 965.189 1893.22 975.369C1900.9 983.051 1903.3 994.575 1900.42 1009.94C1899.27 1016.28 1897.83 1022.71 1896.1 1029.24C1894.56 1035.58 1893.99 1041.44 1894.37 1046.82ZM1945.89 951.168C1951.27 945.983 1957.22 943.006 1963.75 942.237C1970.48 941.277 1976.33 941.949 1981.33 944.254C1986.51 946.559 1990.26 950.304 1992.56 955.49C1995.06 960.484 1994.77 966.245 1991.7 972.776C1985.17 982.379 1979.98 992.751 1976.14 1003.89C1972.3 1015.03 1968.75 1026.27 1965.48 1037.6C1983.15 1026.46 1997.94 1009.84 2009.85 987.757C2013.31 981.227 2017.05 974.6 2021.08 967.878L2025.41 959.811L2034.05 945.983C2035.2 942.333 2037.22 940.029 2040.1 939.068C2042.98 937.916 2046.05 937.34 2049.32 937.34C2052.78 937.34 2056.23 937.436 2059.69 937.628C2063.15 937.628 2066.32 936.667 2069.2 934.747C2072.08 932.826 2075.44 932.154 2079.28 932.73C2083.31 933.114 2086.87 934.363 2089.94 936.475C2093.21 938.588 2095.61 941.181 2097.14 944.254C2098.87 947.135 2099.06 950.016 2097.72 952.897C2089.65 970.183 2078.61 1002.35 2064.59 1049.41C2061.32 1059.97 2058.25 1068.81 2055.37 1075.91C2050.57 1081.87 2044.52 1085.9 2037.22 1088.02C2029.92 1090.13 2023.01 1090.7 2016.47 1089.74C2010.14 1088.98 2005.05 1086.77 2001.21 1083.12C1997.36 1079.66 1996.5 1075.24 1998.61 1069.86C1993.23 1074.28 1987.66 1078.32 1981.9 1081.97C1976.14 1085.61 1969.13 1088.02 1960.87 1089.17C1952.81 1090.32 1945.03 1089.94 1937.54 1088.02C1930.05 1086.29 1923.61 1082.83 1918.23 1077.64C1913.05 1072.46 1910.26 1065.54 1909.88 1056.9C1908.73 1026.55 1920.73 991.31 1945.89 951.168ZM2138.18 1078.51L2130.98 1085.13C2127.14 1087.82 2123.39 1089.46 2119.74 1090.03L2120.03 1090.32L2118.59 1091.47C2104.95 1092.62 2094.87 1089.65 2088.34 1082.54C2081.62 1075.05 2080.18 1065.26 2084.02 1053.16C2092.47 1005.33 2104.28 960.964 2119.45 920.054C2129.63 892.396 2139.43 873.862 2148.84 864.451C2153.83 859.649 2158.44 858.209 2162.67 860.129C2163.82 855.52 2165.84 851.966 2168.72 849.47C2171.6 846.781 2174.77 845.244 2178.23 844.86C2181.68 844.284 2185.04 844.86 2188.31 846.589C2191.57 848.125 2194.07 851.006 2195.8 855.232C2197.72 859.457 2198.49 863.586 2198.11 867.62C2197.91 871.461 2197.05 875.302 2195.51 879.144C2194.17 882.793 2192.44 886.442 2190.33 890.091C2188.41 893.741 2186.58 897.39 2184.85 901.039C2172.56 930.617 2163.82 952.513 2158.64 966.726L2161.23 964.997C2173.9 956.546 2187.45 952.801 2201.85 953.761C2208.19 954.337 2213.85 956.066 2218.85 958.947C2224.03 961.636 2227.78 965.765 2230.08 971.335C2232.58 976.905 2233.54 984.108 2232.96 992.943C2232.58 1001.59 2230.95 1010.61 2228.07 1020.02C2225.19 1029.24 2221.25 1038.27 2216.26 1047.11C2211.45 1055.94 2206.08 1063.62 2200.12 1070.15C2186.68 1084.94 2173.71 1090.51 2161.23 1086.86C2155.85 1087.63 2149.61 1085.13 2142.5 1079.37C2140.97 1078.03 2139.53 1076.97 2138.18 1076.2V1078.51ZM2145.96 1057.76C2148.84 1054.5 2153.74 1048.35 2160.65 1039.33C2167.76 1030.3 2172.46 1023.29 2174.77 1018.3C2177.27 1013.11 2176.69 1008.31 2173.04 1003.89C2169.39 999.281 2164.78 1002.74 2159.21 1014.26C2150.38 1032.7 2145.96 1047.2 2145.96 1057.76Z" fill="#FFCA4F"/>
<path d="M1413.39 1254.64C1418.36 1255.72 1422.18 1257.88 1424.84 1261.12C1427.58 1264.29 1428.95 1268.4 1428.95 1273.44C1428.95 1279.92 1426.53 1284.93 1421.71 1288.46C1416.95 1291.91 1409.9 1293.64 1400.53 1293.64H1365.74V1218.02H1398.37C1406.8 1218.02 1413.32 1219.71 1417.93 1223.1C1422.61 1226.48 1424.95 1231.27 1424.95 1237.46C1424.95 1241.64 1423.9 1245.21 1421.82 1248.16C1419.8 1251.04 1416.99 1253.2 1413.39 1254.64ZM1373.74 1224.61V1252.05H1397.83C1403.95 1252.05 1408.67 1250.9 1411.98 1248.59C1415.3 1246.22 1416.95 1242.79 1416.95 1238.33C1416.95 1233.86 1415.3 1230.48 1411.98 1228.17C1408.67 1225.8 1403.95 1224.61 1397.83 1224.61H1373.74ZM1400.42 1287.05C1407.2 1287.05 1412.31 1285.9 1415.77 1283.6C1419.22 1281.29 1420.95 1277.69 1420.95 1272.79C1420.95 1263.36 1414.11 1258.64 1400.42 1258.64H1373.74V1287.05H1400.42ZM1496.78 1236.82V1286.73C1496.78 1296.38 1494.59 1303.51 1490.19 1308.12C1485.8 1312.8 1479.17 1315.14 1470.31 1315.14C1465.34 1315.14 1460.63 1314.35 1456.16 1312.77C1451.77 1311.25 1448.2 1309.13 1445.47 1306.39L1449.36 1300.56C1451.8 1303.01 1454.83 1304.92 1458.43 1306.28C1462.03 1307.65 1465.89 1308.34 1469.99 1308.34C1476.54 1308.34 1481.37 1306.64 1484.47 1303.26C1487.56 1299.95 1489.11 1294.76 1489.11 1287.7V1281.11C1487.1 1284.42 1484.32 1286.98 1480.79 1288.78C1477.34 1290.58 1473.41 1291.48 1469.02 1291.48C1461.6 1291.48 1455.73 1289.43 1451.41 1285.32C1447.16 1281.15 1445.03 1275.06 1445.03 1267.07V1236.82H1452.7V1266.31C1452.7 1272.29 1454.18 1276.83 1457.13 1279.92C1460.09 1283.02 1464.3 1284.57 1469.77 1284.57C1475.75 1284.57 1480.47 1282.77 1483.93 1279.17C1487.38 1275.49 1489.11 1270.42 1489.11 1263.93V1236.82H1496.78ZM1581.01 1294.29C1573.52 1294.29 1566.75 1292.64 1560.69 1289.32C1554.72 1286.01 1550 1281.44 1546.54 1275.6C1543.16 1269.7 1541.46 1263.11 1541.46 1255.83C1541.46 1248.56 1543.16 1242 1546.54 1236.17C1550 1230.26 1554.75 1225.65 1560.8 1222.34C1566.85 1219.03 1573.62 1217.37 1581.11 1217.37C1586.73 1217.37 1591.92 1218.31 1596.67 1220.18C1601.42 1222.05 1605.46 1224.79 1608.77 1228.39L1603.69 1233.47C1597.79 1227.49 1590.33 1224.5 1581.33 1224.5C1575.35 1224.5 1569.91 1225.87 1565.02 1228.61C1560.12 1231.34 1556.27 1235.09 1553.46 1239.84C1550.72 1244.59 1549.35 1249.92 1549.35 1255.83C1549.35 1261.74 1550.72 1267.07 1553.46 1271.82C1556.27 1276.57 1560.12 1280.32 1565.02 1283.06C1569.91 1285.79 1575.35 1287.16 1581.33 1287.16C1590.41 1287.16 1597.86 1284.14 1603.69 1278.09L1608.77 1283.16C1605.46 1286.77 1601.39 1289.54 1596.56 1291.48C1591.81 1293.36 1586.62 1294.29 1581.01 1294.29ZM1673.5 1236.82V1286.73C1673.5 1296.38 1671.31 1303.51 1666.91 1308.12C1662.52 1312.8 1655.89 1315.14 1647.04 1315.14C1642.07 1315.14 1637.35 1314.35 1632.88 1312.77C1628.49 1311.25 1624.92 1309.13 1622.19 1306.39L1626.08 1300.56C1628.52 1303.01 1631.55 1304.92 1635.15 1306.28C1638.75 1307.65 1642.61 1308.34 1646.71 1308.34C1653.27 1308.34 1658.09 1306.64 1661.19 1303.26C1664.28 1299.95 1665.83 1294.76 1665.83 1287.7V1281.11C1663.82 1284.42 1661.04 1286.98 1657.51 1288.78C1654.06 1290.58 1650.13 1291.48 1645.74 1291.48C1638.32 1291.48 1632.45 1289.43 1628.13 1285.32C1623.88 1281.15 1621.75 1275.06 1621.75 1267.07V1236.82H1629.43V1266.31C1629.43 1272.29 1630.9 1276.83 1633.85 1279.92C1636.81 1283.02 1641.02 1284.57 1646.49 1284.57C1652.47 1284.57 1657.19 1282.77 1660.65 1279.17C1664.1 1275.49 1665.83 1270.42 1665.83 1263.93V1236.82H1673.5ZM1724.27 1236.38C1729.6 1236.38 1734.42 1237.61 1738.74 1240.06C1743.06 1242.43 1746.45 1245.82 1748.9 1250.21C1751.35 1254.61 1752.57 1259.61 1752.57 1265.23C1752.57 1270.85 1751.35 1275.85 1748.9 1280.25C1746.45 1284.64 1743.06 1288.06 1738.74 1290.51C1734.42 1292.96 1729.6 1294.18 1724.27 1294.18C1719.51 1294.18 1715.23 1293.18 1711.41 1291.16C1707.66 1289.14 1704.64 1286.23 1702.33 1282.41V1293.64H1694.99V1213.48H1702.66V1247.62C1705.03 1243.95 1708.06 1241.17 1711.73 1239.3C1715.48 1237.36 1719.66 1236.38 1724.27 1236.38ZM1723.73 1287.38C1727.69 1287.38 1731.29 1286.48 1734.53 1284.68C1737.77 1282.8 1740.29 1280.17 1742.09 1276.79C1743.96 1273.4 1744.9 1269.55 1744.9 1265.23C1744.9 1260.91 1743.96 1257.06 1742.09 1253.67C1740.29 1250.28 1737.77 1247.69 1734.53 1245.89C1731.29 1244.02 1727.69 1243.08 1723.73 1243.08C1719.69 1243.08 1716.05 1244.02 1712.81 1245.89C1709.64 1247.69 1707.12 1250.28 1705.25 1253.67C1703.45 1257.06 1702.55 1260.91 1702.55 1265.23C1702.55 1269.55 1703.45 1273.4 1705.25 1276.79C1707.12 1280.17 1709.64 1282.8 1712.81 1284.68C1716.05 1286.48 1719.69 1287.38 1723.73 1287.38ZM1792.52 1287.38C1796.05 1287.38 1799.29 1286.77 1802.24 1285.54C1805.26 1284.24 1807.82 1282.37 1809.91 1279.92L1814.23 1284.89C1811.71 1287.92 1808.58 1290.22 1804.83 1291.81C1801.09 1293.39 1796.95 1294.18 1792.41 1294.18C1786.57 1294.18 1781.39 1292.96 1776.85 1290.51C1772.31 1287.99 1768.78 1284.53 1766.26 1280.14C1763.74 1275.75 1762.48 1270.78 1762.48 1265.23C1762.48 1259.68 1763.67 1254.71 1766.05 1250.32C1768.5 1245.93 1771.84 1242.51 1776.09 1240.06C1780.34 1237.61 1785.17 1236.38 1790.57 1236.38C1795.61 1236.38 1800.15 1237.54 1804.18 1239.84C1808.29 1242.15 1811.53 1245.35 1813.91 1249.46C1816.36 1253.56 1817.65 1258.24 1817.8 1263.5L1771.12 1272.58C1772.57 1277.19 1775.16 1280.82 1778.9 1283.49C1782.72 1286.08 1787.26 1287.38 1792.52 1287.38ZM1790.57 1242.97C1786.61 1242.97 1783.04 1243.91 1779.88 1245.78C1776.78 1247.58 1774.33 1250.14 1772.53 1253.45C1770.8 1256.69 1769.94 1260.44 1769.94 1264.69C1769.94 1265.77 1769.97 1266.56 1770.04 1267.07L1810.13 1259.29C1809.26 1254.53 1807.07 1250.64 1803.54 1247.62C1800.01 1244.52 1795.69 1242.97 1790.57 1242.97ZM1840.76 1247.94C1842.56 1244.13 1845.22 1241.25 1848.75 1239.3C1852.35 1237.36 1856.78 1236.38 1862.04 1236.38V1243.84L1860.2 1243.73C1854.22 1243.73 1849.54 1245.57 1846.16 1249.24C1842.77 1252.91 1841.08 1258.06 1841.08 1264.69V1293.64H1833.41V1236.82H1840.76V1247.94ZM1910.09 1217.37C1919.16 1217.37 1926.26 1220.07 1931.37 1225.47C1936.55 1230.87 1939.15 1238.58 1939.15 1248.59V1293.64H1931.15V1248.81C1931.15 1240.81 1929.17 1234.76 1925.21 1230.66C1921.25 1226.55 1915.7 1224.5 1908.57 1224.5C1901.08 1224.5 1895.25 1226.7 1891.07 1231.09C1886.89 1235.41 1884.8 1241.93 1884.8 1250.64V1293.64H1876.81V1218.02H1884.48V1230.77C1889.31 1221.84 1897.84 1217.37 1910.09 1217.37ZM1985.8 1287.38C1989.33 1287.38 1992.57 1286.77 1995.52 1285.54C1998.55 1284.24 2001.11 1282.37 2003.19 1279.92L2007.52 1284.89C2005 1287.92 2001.86 1290.22 1998.12 1291.81C1994.37 1293.39 1990.23 1294.18 1985.69 1294.18C1979.86 1294.18 1974.67 1292.96 1970.14 1290.51C1965.6 1287.99 1962.07 1284.53 1959.55 1280.14C1957.03 1275.75 1955.77 1270.78 1955.77 1265.23C1955.77 1259.68 1956.95 1254.71 1959.33 1250.32C1961.78 1245.93 1965.13 1242.51 1969.38 1240.06C1973.63 1237.61 1978.45 1236.38 1983.86 1236.38C1988.9 1236.38 1993.44 1237.54 1997.47 1239.84C2001.57 1242.15 2004.82 1245.35 2007.19 1249.46C2009.64 1253.56 2010.94 1258.24 2011.08 1263.5L1964.41 1272.58C1965.85 1277.19 1968.44 1280.82 1972.19 1283.49C1976.01 1286.08 1980.54 1287.38 1985.8 1287.38ZM1983.86 1242.97C1979.89 1242.97 1976.33 1243.91 1973.16 1245.78C1970.06 1247.58 1967.61 1250.14 1965.81 1253.45C1964.09 1256.69 1963.22 1260.44 1963.22 1264.69C1963.22 1265.77 1963.26 1266.56 1963.33 1267.07L2003.41 1259.29C2002.55 1254.53 2000.35 1250.64 1996.82 1247.62C1993.29 1244.52 1988.97 1242.97 1983.86 1242.97ZM2061.3 1293.64L2043.26 1269.88L2025.11 1293.64H2016.47L2038.94 1264.47L2017.55 1236.82H2026.19L2043.26 1259.07L2060.33 1236.82H2068.76L2047.37 1264.47L2070.06 1293.64H2061.3ZM2132.98 1236.82V1293.64H2125.63V1283.27C2123.61 1286.73 2120.84 1289.43 2117.31 1291.37C2113.78 1293.25 2109.75 1294.18 2105.21 1294.18C2097.79 1294.18 2091.92 1292.13 2087.6 1288.03C2083.35 1283.85 2081.23 1277.76 2081.23 1269.77V1236.82H2088.9V1269.01C2088.9 1274.99 2090.37 1279.53 2093.33 1282.62C2096.28 1285.72 2100.49 1287.27 2105.97 1287.27C2111.95 1287.27 2116.66 1285.47 2120.12 1281.87C2123.58 1278.19 2125.31 1273.12 2125.31 1266.63V1236.82H2132.98ZM2169.69 1294.18C2165.08 1294.18 2160.65 1293.54 2156.41 1292.24C2152.23 1290.87 2148.95 1289.18 2146.57 1287.16L2150.03 1281.11C2152.41 1282.98 2155.4 1284.53 2159 1285.76C2162.6 1286.91 2166.34 1287.49 2170.23 1287.49C2175.42 1287.49 2179.24 1286.69 2181.69 1285.11C2184.21 1283.45 2185.47 1281.15 2185.47 1278.19C2185.47 1276.11 2184.78 1274.49 2183.41 1273.33C2182.05 1272.11 2180.32 1271.21 2178.23 1270.63C2176.14 1269.98 2173.37 1269.37 2169.91 1268.8C2165.3 1267.93 2161.59 1267.07 2158.78 1266.2C2155.97 1265.27 2153.56 1263.72 2151.54 1261.56C2149.6 1259.4 2148.63 1256.41 2148.63 1252.59C2148.63 1247.84 2150.61 1243.95 2154.57 1240.92C2158.53 1237.9 2164.04 1236.38 2171.1 1236.38C2174.77 1236.38 2178.44 1236.89 2182.12 1237.9C2185.79 1238.83 2188.82 1240.09 2191.19 1241.68L2187.84 1247.84C2183.16 1244.59 2177.58 1242.97 2171.1 1242.97C2166.2 1242.97 2162.49 1243.84 2159.97 1245.57C2157.52 1247.3 2156.3 1249.56 2156.3 1252.37C2156.3 1254.53 2156.98 1256.26 2158.35 1257.56C2159.79 1258.86 2161.56 1259.83 2163.64 1260.48C2165.73 1261.05 2168.61 1261.66 2172.29 1262.31C2176.82 1263.18 2180.46 1264.04 2183.2 1264.91C2185.94 1265.77 2188.28 1267.25 2190.22 1269.34C2192.17 1271.42 2193.14 1274.3 2193.14 1277.98C2193.14 1282.95 2191.05 1286.91 2186.87 1289.86C2182.77 1292.74 2177.04 1294.18 2169.69 1294.18Z" fill="#45414A"/>
</svg>