<svg width="28" height="28" viewBox="0 0 28 28" fill="none" xmlns="http://www.w3.org/2000/svg">
<path d="M20.9062 1H7.09375C3.72826 1 1 3.72826 1 7.09375V20.9062C1 24.2717 3.72826 27 7.09375 27H20.9062C24.2717 27 27 24.2717 27 20.9062V7.09375C27 3.72826 24.2717 1 20.9062 1Z" fill="url(#paint0_radial_3236_24770)"/>
<path d="M20.9062 1H7.09375C3.72826 1 1 3.72826 1 7.09375V20.9062C1 24.2717 3.72826 27 7.09375 27H20.9062C24.2717 27 27 24.2717 27 20.9062V7.09375C27 3.72826 24.2717 1 20.9062 1Z" fill="url(#paint1_radial_3236_24770)"/>
<path d="M14.0029 3.84375C11.2446 3.84375 10.8984 3.85584 9.81514 3.90509C8.73391 3.95466 7.99585 4.12579 7.35012 4.37695C6.68204 4.63634 6.11542 4.98338 5.55094 5.54807C4.98595 6.11266 4.63891 6.67927 4.3787 7.34705C4.12683 7.99298 3.95549 8.73134 3.90684 9.81207C3.8584 10.8954 3.8457 11.2418 3.8457 14.0001C3.8457 16.7584 3.85789 17.1035 3.90705 18.1868C3.95681 19.268 4.12795 20.0061 4.37891 20.6518C4.6385 21.3199 4.98554 21.8865 5.55023 22.451C6.11461 23.016 6.68123 23.3639 7.3488 23.6232C7.99504 23.8744 8.7332 24.0455 9.81423 24.0951C10.8976 24.1444 11.2435 24.1565 14.0016 24.1565C16.7602 24.1565 17.1053 24.1444 18.1886 24.0951C19.2698 24.0455 20.0087 23.8744 20.6549 23.6232C21.3227 23.3639 21.8885 23.016 22.4528 22.451C23.0178 21.8865 23.3647 21.3199 23.625 20.6521C23.8746 20.0061 24.0461 19.2678 24.0969 18.187C24.1455 17.1037 24.1582 16.7584 24.1582 14.0001C24.1582 11.2418 24.1455 10.8956 24.0969 9.81227C24.0461 8.73104 23.8746 7.99309 23.625 7.34735C23.3647 6.67927 23.0178 6.11266 22.4528 5.54807C21.8879 4.98318 21.3229 4.63614 20.6543 4.37705C20.0068 4.12579 19.2684 3.95455 18.1871 3.90509C17.1038 3.85584 16.7589 3.84375 13.9997 3.84375H14.0029ZM13.0918 5.67401C13.3622 5.6736 13.664 5.67401 14.0029 5.67401C16.7147 5.67401 17.036 5.68376 18.1069 5.73241C19.0971 5.7777 19.6346 5.94315 19.9926 6.08219C20.4666 6.26622 20.8045 6.4863 21.1598 6.84187C21.5152 7.19734 21.7352 7.53585 21.9198 8.00984C22.0588 8.36734 22.2245 8.90481 22.2695 9.89505C22.3182 10.9657 22.3288 11.2873 22.3288 13.9978C22.3288 16.7083 22.3182 17.0299 22.2695 18.1005C22.2243 19.0907 22.0588 19.6282 21.9198 19.9858C21.7357 20.4598 21.5152 20.7973 21.1598 21.1525C20.8043 21.508 20.4668 21.728 19.9926 21.9121C19.635 22.0518 19.0971 22.2168 18.1069 22.2621C17.0362 22.3108 16.7147 22.3213 14.0029 22.3213C11.2909 22.3213 10.9695 22.3108 9.89893 22.2621C8.9087 22.2164 8.37123 22.051 8.01291 21.9119C7.53902 21.7278 7.20041 21.5078 6.84495 21.1523C6.48948 20.7969 6.26949 20.4592 6.08495 19.985C5.94591 19.6274 5.78027 19.0899 5.73517 18.0997C5.68652 17.029 5.67677 16.7075 5.67677 13.9952C5.67677 11.283 5.68652 10.9632 5.73517 9.89251C5.78047 8.90227 5.94591 8.3648 6.08495 8.0068C6.26909 7.5328 6.48948 7.1943 6.84505 6.83883C7.20062 6.48336 7.53902 6.26327 8.01302 6.07884C8.37102 5.93919 8.9087 5.77415 9.89893 5.72865C10.8358 5.6863 11.1989 5.6736 13.0918 5.67147V5.67401ZM19.4243 7.36035C18.7514 7.36035 18.2055 7.90574 18.2055 8.5787C18.2055 9.25155 18.7514 9.79745 19.4243 9.79745C20.0971 9.79745 20.643 9.25155 20.643 8.5787C20.643 7.90584 20.0971 7.35994 19.4243 7.35994V7.36035ZM14.0029 8.78436C11.1226 8.78436 8.78723 11.1197 8.78723 14.0001C8.78723 16.8805 11.1226 19.2147 14.0029 19.2147C16.8833 19.2147 19.2178 16.8805 19.2178 14.0001C19.2178 11.1198 16.8831 8.78436 14.0027 8.78436H14.0029ZM14.0029 10.6146C15.8725 10.6146 17.3884 12.1302 17.3884 14.0001C17.3884 15.8698 15.8725 17.3856 14.0029 17.3856C12.1332 17.3856 10.6175 15.8698 10.6175 14.0001C10.6175 12.1302 12.1331 10.6146 14.0029 10.6146Z" fill="white"/>
<defs>
<radialGradient id="paint0_radial_3236_24770" cx="0" cy="0" r="1" gradientUnits="userSpaceOnUse" gradientTransform="translate(7.90625 29.0025) rotate(-90) scale(25.7679 23.9662)">
<stop stop-color="#FFDD55"/>
<stop offset="0.1" stop-color="#FFDD55"/>
<stop offset="0.5" stop-color="#FF543E"/>
<stop offset="1" stop-color="#C837AB"/>
</radialGradient>
<radialGradient id="paint1_radial_3236_24770" cx="0" cy="0" r="1" gradientUnits="userSpaceOnUse" gradientTransform="translate(-3.3551 2.87291) rotate(78.681) scale(11.5184 47.4792)">
<stop stop-color="#3771C8"/>
<stop offset="0.128" stop-color="#3771C8"/>
<stop offset="1" stop-color="#6600FF" stop-opacity="0"/>
</radialGradient>
</defs>
</svg>
