<svg width="28" height="28" viewBox="0 0 28 28" fill="none" xmlns="http://www.w3.org/2000/svg">
<path d="M14.0016 15.428C13.2824 15.428 12.5793 15.2186 11.9813 14.8261C11.3833 14.4337 10.9173 13.8759 10.642 13.2233C10.3668 12.5707 10.2948 11.8526 10.4351 11.1598C10.5754 10.467 10.9217 9.83068 11.4303 9.33121C11.9389 8.83173 12.5868 8.49159 13.2922 8.35378C13.9976 8.21598 14.7287 8.2867 15.3932 8.55702C16.0576 8.82733 16.6256 9.28509 17.0251 9.87241C17.4247 10.4597 17.638 11.1502 17.638 11.8566C17.6368 12.8034 17.2533 13.7112 16.5716 14.3807C15.8899 15.0502 14.9657 15.4269 14.0016 15.428ZM14.0016 9.71373C13.5701 9.71373 13.1482 9.83941 12.7894 10.0749C12.4306 10.3103 12.151 10.645 11.9859 11.0366C11.8207 11.4281 11.7775 11.859 11.8617 12.2746C11.9459 12.6903 12.1537 13.0721 12.4588 13.3718C12.764 13.6715 13.1527 13.8756 13.5759 13.9583C13.9992 14.041 14.4379 13.9985 14.8365 13.8363C15.2352 13.6741 15.576 13.3995 15.8157 13.0471C16.0555 12.6947 16.1834 12.2804 16.1834 11.8566C16.1828 11.2884 15.9528 10.7437 15.5437 10.342C15.1347 9.94024 14.5801 9.7143 14.0016 9.71373Z" fill="#49A760"/>
<path d="M14 24L7.86473 16.8936C7.77948 16.7869 7.69511 16.6795 7.61164 16.5714C6.56416 15.2153 5.99805 13.5594 6.00001 11.8571C6.00001 9.7733 6.84286 7.7748 8.34315 6.3013C9.84344 4.8278 11.8783 4 14 4C16.1217 4 18.1566 4.8278 19.6569 6.3013C21.1571 7.7748 22 9.7733 22 11.8571C22.0017 13.5585 21.4359 15.2136 20.3891 16.5693L20.3884 16.5714C20.3884 16.5714 20.1702 16.8529 20.1375 16.8907L14 24ZM8.77309 15.7107C8.77309 15.7107 8.94255 15.9307 8.98109 15.9779L14 21.7914L19.0255 15.97C19.0575 15.9307 19.2276 15.7093 19.2284 15.7086C20.0845 14.6008 20.5472 13.2479 20.5455 11.8571C20.5455 10.1522 19.8558 8.51705 18.6283 7.31146C17.4008 6.10587 15.736 5.42857 14 5.42857C12.264 5.42857 10.5992 6.10587 9.37167 7.31146C8.14416 8.51705 7.45455 10.1522 7.45455 11.8571C7.45276 13.2488 7.91596 14.6026 8.77309 15.7107Z" fill="#49A760"/>
</svg>