<svg width="24" height="24" viewBox="0 0 24 24" fill="none" xmlns="http://www.w3.org/2000/svg">
<path d="M7.43927 10.5952L7.22876 10.8358L7.35878 11.1278C8.51824 13.732 10.3908 15.8683 12.6885 17.2137L13.0452 17.4226L13.3174 17.1115L15.0285 15.1559C15.1107 15.062 15.2025 15.0551 15.2631 15.0789L15.2631 15.0789L15.2689 15.0811C16.1955 15.4309 17.1964 15.62 18.2222 15.62C18.3132 15.62 18.5 15.7313 18.5 16.0089V19.1111C18.5 19.3887 18.3132 19.5 18.2222 19.5C11.2557 19.5 5.5 13.0242 5.5 4.88889C5.5 4.61134 5.68677 4.5 5.77778 4.5H8.5C8.59101 4.5 8.77778 4.61134 8.77778 4.88889C8.77778 6.04536 8.9395 7.15752 9.23971 8.19739C9.28439 8.36304 9.24573 8.53067 9.15038 8.63964L7.43927 10.5952Z" fill="#49A760" stroke="#49A760"/>
</svg>
